<svg width="16" height="16" viewBox="0 0 16 16" fill="none" xmlns="http://www.w3.org/2000/svg">
<rect width="16" height="16" rx="8" fill="#FFE8D8"/>
<rect x="4" y="4.5" width="8" height="6" rx="2" fill="#AEAAB7"/>
<path d="M4.29904 3.17783C5.09808 2.92783 6.5 4.5 6.5 4.5C5.34653 4.87397 4.86547 5.07822 4 7.00002C4 7.00002 3.5 3.42783 4.29904 3.17783Z" fill="#928E9C"/>
<path d="M4.71119 3.47096C5.22428 3.33204 6.5 4.5 6.5 4.5C6.5 4.5 4.84223 5.40873 4.50001 6.00001C4.50001 6.00001 4.19809 3.60988 4.71119 3.47096Z" fill="#686471"/>
<path d="M11.7991 3.17765C11.0981 3.17768 9.5 4.5 9.5 4.5C11.354 5.29908 11.9659 5.82683 12 6.99999C12 6.99999 12.5 3.17761 11.7991 3.17765Z" fill="#928E9C"/>
<path d="M11.3606 3.45312C10.8826 3.48642 9.5 4.5 9.5 4.5C9.5 4.5 10.2233 4.7175 11.3606 5.50002C11.3606 5.50002 11.8387 3.41981 11.3606 3.45312Z" fill="#686471"/>
<path d="M5 9.5H11L10 11.5H6L5 9.5Z" fill="#490A0A"/>
<path d="M5.2069 11.1364C5.2069 11.6384 6.13793 12.0455 6.13793 12.0455C6.13793 12.0455 6.60345 12.5 8 12.5C9.39655 12.5 9.86207 12.0455 9.86207 12.0455C9.86207 12.0455 10.7931 11.6384 10.7931 11.1364C10.7931 11.1364 10.2257 11.1364 9.86207 11.1364C9.86207 11.1364 8.93103 11.5 8 11.5C7.06897 11.5 6.13793 11.1364 6.13793 11.1364H5.2069Z" fill="#9390A8"/>
<path d="M5.2069 8.40909C5.67241 7.95455 6.34178 7.85502 7.06896 7.5C6.5622 8.73837 6.01151 9.54191 6.13793 11.1364H5.2069C5.2069 11.1364 4.74138 8.86364 5.2069 8.40909Z" fill="#9390A8"/>
<path d="M8.93104 7.5C8.93104 7.5 10.3276 7.95455 10.7931 8.40909C11.2586 8.86364 10.7931 11.1364 10.7931 11.1364C10.7931 11.1364 10.2257 11.1364 9.86207 11.1364C9.7972 9.38308 9.59525 8.58475 8.93104 7.5Z" fill="#9390A8"/>
<path d="M6.26242 11.1998C7.00097 10.8738 9.03591 10.8764 9.75921 11.2C9.75921 11.2 8.76783 11.4223 8.53378 12.2653C8.29973 13.1084 7.83163 13.1084 7.59757 12.2653C7.36351 11.4223 6.26242 11.1998 6.26242 11.1998Z" fill="#FF6F6F"/>
<path d="M6.66949 10.6753L6.50965 9.52562L7.14696 9.61731L6.66949 10.6753Z" fill="#626262"/>
<path d="M6.60399 10.7856L6.28973 9.69703L6.91824 9.69703L6.60399 10.7856Z" fill="#CECECE"/>
<path d="M6.56642 11.034L6.02234 10.0401L6.63573 9.90302L6.56642 11.034Z" fill="white"/>
<path d="M9.33495 10.6815L8.84649 9.77423L9.40517 9.6535L9.33495 10.6815Z" fill="#626262"/>
<path d="M9.41127 10.8098L9.12549 9.81982L9.69706 9.81982L9.41127 10.8098Z" fill="#CECECE"/>
<path d="M9.45566 11.0356L9.31057 10.0154L9.87657 10.095L9.45566 11.0356Z" fill="white"/>
<path d="M5.8264 8.23297C5.91436 7.79524 6.30781 7.5 6.75429 7.5H9.24569C9.69217 7.5 10.0856 7.79524 10.1736 8.23297C10.3739 9.2297 10.5533 10.8511 9.49999 10.5C7.99999 10 7.99998 10 6.49999 10.5C5.44665 10.8511 5.62612 9.22971 5.8264 8.23297Z" fill="#616780"/>
<ellipse rx="1" ry="0.715097" transform="matrix(1 0 0 -1 8 8.7849)" fill="#1D2530"/>
<path d="M5 6.5H6.5C6.77614 6.5 7 6.72386 7 7C7 7.27614 6.77614 7.5 6.5 7.5H6C5.44772 7.5 5 7.05228 5 6.5Z" fill="white"/>
<ellipse cx="6.20411" cy="6.9742" rx="0.374646" ry="0.328775" transform="rotate(-173.125 6.20411 6.9742)" fill="#4678FA"/>
<ellipse cx="6.23824" cy="6.97835" rx="0.19994" ry="0.14529" transform="rotate(-64.3512 6.23824 6.97835)" fill="#30384D"/>
<path d="M11 6.5H9.5C9.22386 6.5 9 6.72386 9 7C9 7.27614 9.22386 7.5 9.5 7.5H10C10.5523 7.5 11 7.05228 11 6.5Z" fill="white"/>
<ellipse rx="0.374646" ry="0.328775" transform="matrix(0.992811 -0.119695 -0.119695 -0.992811 9.79589 6.9742)" fill="#4678FA"/>
<ellipse rx="0.137375" ry="0.17595" transform="matrix(0.683502 -0.729949 -0.729949 -0.683502 9.71094 7.02946)" fill="#323849"/>
</svg>
